<svg width="21" height="20" viewBox="0 0 21 20" fill="none" xmlns="http://www.w3.org/2000/svg">
<path fill-rule="evenodd" clip-rule="evenodd" d="M15.3813 8.33333C15.3813 7.87417 14.9985 7.5 14.5268 7.5C14.0551 7.5 13.6723 7.87417 13.6723 8.33333C13.6723 8.7925 14.0551 9.16667 14.5268 9.16667C14.9985 9.16667 15.3813 8.7925 15.3813 8.33333ZM17.0903 8.33333C17.0903 9.71167 15.9402 10.8333 14.5268 10.8333C13.1134 10.8333 11.9632 9.71167 11.9632 8.33333C11.9632 6.955 13.1134 5.83333 14.5268 5.83333C15.9402 5.83333 17.0903 6.955 17.0903 8.33333ZM9.39966 5.83333C9.39966 4.91417 8.63316 4.16667 7.69062 4.16667C6.74809 4.16667 5.98158 4.91417 5.98158 5.83333C5.98158 6.7525 6.74809 7.5 7.69062 7.5C8.63316 7.5 9.39966 6.7525 9.39966 5.83333ZM11.1087 5.83333C11.1087 7.67167 9.57569 9.16667 7.69062 9.16667C5.80555 9.16667 4.27254 7.67167 4.27254 5.83333C4.27254 3.995 5.80555 2.5 7.69062 2.5C9.57569 2.5 11.1087 3.995 11.1087 5.83333ZM11.912 12.5383C12.6545 11.9783 13.5689 11.6667 14.5268 11.6667C16.8827 11.6667 18.7994 13.5358 18.7994 15.8333C18.7994 16.2933 18.4174 16.6667 17.9449 16.6667C17.4723 16.6667 17.0903 16.2933 17.0903 15.8333C17.0903 14.455 15.9402 13.3333 14.5268 13.3333C13.9431 13.3333 13.3886 13.5283 12.9408 13.8742C13.4057 14.7042 13.6723 15.6558 13.6723 16.6667C13.6723 17.1267 13.2903 17.5 12.8177 17.5C12.3452 17.5 11.9632 17.1267 11.9632 16.6667C11.9632 14.3692 10.0465 12.5 7.69062 12.5C5.33471 12.5 3.41802 14.3692 3.41802 16.6667C3.41802 17.1267 3.03605 17.5 2.5635 17.5C2.09095 17.5 1.70898 17.1267 1.70898 16.6667C1.70898 13.45 4.39303 10.8333 7.69062 10.8333C9.33728 10.8333 10.8293 11.4858 11.912 12.5383Z" fill="black"/>
<mask id="mask0" mask-type="alpha" maskUnits="userSpaceOnUse" x="1" y="2" width="18" height="16">
<path fill-rule="evenodd" clip-rule="evenodd" d="M15.3813 8.33333C15.3813 7.87417 14.9985 7.5 14.5268 7.5C14.0551 7.5 13.6723 7.87417 13.6723 8.33333C13.6723 8.7925 14.0551 9.16667 14.5268 9.16667C14.9985 9.16667 15.3813 8.7925 15.3813 8.33333ZM17.0903 8.33333C17.0903 9.71167 15.9402 10.8333 14.5268 10.8333C13.1134 10.8333 11.9632 9.71167 11.9632 8.33333C11.9632 6.955 13.1134 5.83333 14.5268 5.83333C15.9402 5.83333 17.0903 6.955 17.0903 8.33333ZM9.39966 5.83333C9.39966 4.91417 8.63316 4.16667 7.69062 4.16667C6.74809 4.16667 5.98158 4.91417 5.98158 5.83333C5.98158 6.7525 6.74809 7.5 7.69062 7.5C8.63316 7.5 9.39966 6.7525 9.39966 5.83333ZM11.1087 5.83333C11.1087 7.67167 9.57569 9.16667 7.69062 9.16667C5.80555 9.16667 4.27254 7.67167 4.27254 5.83333C4.27254 3.995 5.80555 2.5 7.69062 2.5C9.57569 2.5 11.1087 3.995 11.1087 5.83333ZM11.912 12.5383C12.6545 11.9783 13.5689 11.6667 14.5268 11.6667C16.8827 11.6667 18.7994 13.5358 18.7994 15.8333C18.7994 16.2933 18.4174 16.6667 17.9449 16.6667C17.4723 16.6667 17.0903 16.2933 17.0903 15.8333C17.0903 14.455 15.9402 13.3333 14.5268 13.3333C13.9431 13.3333 13.3886 13.5283 12.9408 13.8742C13.4057 14.7042 13.6723 15.6558 13.6723 16.6667C13.6723 17.1267 13.2903 17.5 12.8177 17.5C12.3452 17.5 11.9632 17.1267 11.9632 16.6667C11.9632 14.3692 10.0465 12.5 7.69062 12.5C5.33471 12.5 3.41802 14.3692 3.41802 16.6667C3.41802 17.1267 3.03605 17.5 2.5635 17.5C2.09095 17.5 1.70898 17.1267 1.70898 16.6667C1.70898 13.45 4.39303 10.8333 7.69062 10.8333C9.33728 10.8333 10.8293 11.4858 11.912 12.5383Z" fill="white"/>
</mask>
<g mask="url(#mask0)">
<rect width="20.5085" height="20" fill="#999999"/>
</g>
</svg>
