<svg width="20" height="21" viewBox="0 0 20 21" fill="none" xmlns="http://www.w3.org/2000/svg">
<path fill-rule="evenodd" clip-rule="evenodd" d="M4.16667 10.1667C4.16667 7.40917 6.40917 5.16667 9.16667 5.16667C11.9242 5.16667 14.1667 7.40917 14.1667 10.1667C14.1667 12.9242 11.9242 15.1667 9.16667 15.1667C6.40917 15.1667 4.16667 12.9242 4.16667 10.1667ZM17.2558 17.0775L14.4267 14.2475C15.3042 13.1192 15.8333 11.705 15.8333 10.1667C15.8333 6.49083 12.8425 3.5 9.16667 3.5C5.49083 3.5 2.5 6.49083 2.5 10.1667C2.5 13.8425 5.49083 16.8333 9.16667 16.8333C10.705 16.8333 12.1192 16.3042 13.2475 15.4267L16.0775 18.2558C16.24 18.4183 16.4533 18.5 16.6667 18.5C16.88 18.5 17.0933 18.4183 17.2558 18.2558C17.5817 17.93 17.5817 17.4033 17.2558 17.0775Z" fill="black"/>
<mask id="mask0" mask-type="alpha" maskUnits="userSpaceOnUse" x="2" y="3" width="16" height="16">
<path fill-rule="evenodd" clip-rule="evenodd" d="M4.16667 10.1667C4.16667 7.40917 6.40917 5.16667 9.16667 5.16667C11.9242 5.16667 14.1667 7.40917 14.1667 10.1667C14.1667 12.9242 11.9242 15.1667 9.16667 15.1667C6.40917 15.1667 4.16667 12.9242 4.16667 10.1667ZM17.2558 17.0775L14.4267 14.2475C15.3042 13.1192 15.8333 11.705 15.8333 10.1667C15.8333 6.49083 12.8425 3.5 9.16667 3.5C5.49083 3.5 2.5 6.49083 2.5 10.1667C2.5 13.8425 5.49083 16.8333 9.16667 16.8333C10.705 16.8333 12.1192 16.3042 13.2475 15.4267L16.0775 18.2558C16.24 18.4183 16.4533 18.5 16.6667 18.5C16.88 18.5 17.0933 18.4183 17.2558 18.2558C17.5817 17.93 17.5817 17.4033 17.2558 17.0775Z" fill="white"/>
</mask>
<g mask="url(#mask0)">
<rect y="1" width="20" height="20" fill="#0D1C2E"/>
</g>
</svg>
