<svg width="21" height="20" viewBox="0 0 21 20" fill="none" xmlns="http://www.w3.org/2000/svg">
<path fill-rule="evenodd" clip-rule="evenodd" d="M5.12704 4.16667H15.3848C15.8567 4.16667 16.2393 4.53976 16.2393 5V10.2655C16.2393 10.7257 15.8567 11.0988 15.3848 11.0988H5.12704C4.6551 11.0988 4.27252 10.7257 4.27252 10.2655V5C4.27252 4.53976 4.6551 4.16667 5.12704 4.16667ZM2.56348 5C2.56348 3.61929 3.71122 2.5 5.12704 2.5H15.3848C16.8006 2.5 17.9483 3.61929 17.9483 5V10.2655C17.9483 11.6462 16.8006 12.7655 15.3848 12.7655H5.12704C3.71122 12.7655 2.56348 11.6462 2.56348 10.2655V5ZM5.80309 14.3414C4.90869 14.3414 4.18363 15.0485 4.18363 15.9207C4.18363 16.7929 4.90868 17.5 5.80309 17.5H14.7101C15.6045 17.5 16.3296 16.7929 16.3296 15.9207C16.3296 15.0485 15.6045 14.3414 14.7101 14.3414H5.80309Z" fill="#999999"/>
<mask id="mask0" mask-type="alpha" maskUnits="userSpaceOnUse" x="2" y="2" width="16" height="16">
<path fill-rule="evenodd" clip-rule="evenodd" d="M5.12704 4.16667H15.3848C15.8567 4.16667 16.2393 4.53976 16.2393 5V10.2655C16.2393 10.7257 15.8567 11.0988 15.3848 11.0988H5.12704C4.6551 11.0988 4.27252 10.7257 4.27252 10.2655V5C4.27252 4.53976 4.6551 4.16667 5.12704 4.16667ZM2.56348 5C2.56348 3.61929 3.71122 2.5 5.12704 2.5H15.3848C16.8006 2.5 17.9483 3.61929 17.9483 5V10.2655C17.9483 11.6462 16.8006 12.7655 15.3848 12.7655H5.12704C3.71122 12.7655 2.56348 11.6462 2.56348 10.2655V5ZM5.80309 14.3414C4.90869 14.3414 4.18363 15.0485 4.18363 15.9207C4.18363 16.7929 4.90868 17.5 5.80309 17.5H14.7101C15.6045 17.5 16.3296 16.7929 16.3296 15.9207C16.3296 15.0485 15.6045 14.3414 14.7101 14.3414H5.80309Z" fill="black"/>
</mask>
<g mask="url(#mask0)">
<rect width="20.5085" height="20" fill="#999999"/>
</g>
</svg>
