<svg width="22" height="20" viewBox="0 0 22 20" fill="none" xmlns="http://www.w3.org/2000/svg">
<path fill-rule="evenodd" clip-rule="evenodd" d="M5.63485 4.16667H15.8926C16.3645 4.16667 16.7471 4.53976 16.7471 5V10.2655C16.7471 10.7257 16.3645 11.0988 15.8926 11.0988H5.63485C5.16291 11.0988 4.78033 10.7257 4.78033 10.2655V5C4.78033 4.53976 5.16291 4.16667 5.63485 4.16667ZM3.07129 5C3.07129 3.61929 4.21903 2.5 5.63485 2.5H15.8926C17.3084 2.5 18.4561 3.61929 18.4561 5V10.2655C18.4561 11.6462 17.3084 12.7655 15.8926 12.7655H5.63485C4.21903 12.7655 3.07129 11.6462 3.07129 10.2655V5ZM6.3109 14.3414C5.4165 14.3414 4.69144 15.0485 4.69144 15.9207C4.69144 16.7929 5.4165 17.5 6.3109 17.5H15.2179C16.1123 17.5 16.8374 16.7929 16.8374 15.9207C16.8374 15.0485 16.1123 14.3414 15.2179 14.3414H6.3109Z" fill="#FBBF24"/>
<mask id="mask0" mask-type="alpha" maskUnits="userSpaceOnUse" x="3" y="2" width="16" height="16">
<path fill-rule="evenodd" clip-rule="evenodd" d="M5.63485 4.16667H15.8926C16.3645 4.16667 16.7471 4.53976 16.7471 5V10.2655C16.7471 10.7257 16.3645 11.0988 15.8926 11.0988H5.63485C5.16291 11.0988 4.78033 10.7257 4.78033 10.2655V5C4.78033 4.53976 5.16291 4.16667 5.63485 4.16667ZM3.07129 5C3.07129 3.61929 4.21903 2.5 5.63485 2.5H15.8926C17.3084 2.5 18.4561 3.61929 18.4561 5V10.2655C18.4561 11.6462 17.3084 12.7655 15.8926 12.7655H5.63485C4.21903 12.7655 3.07129 11.6462 3.07129 10.2655V5ZM6.3109 14.3414C5.4165 14.3414 4.69144 15.0485 4.69144 15.9207C4.69144 16.7929 5.4165 17.5 6.3109 17.5H15.2179C16.1123 17.5 16.8374 16.7929 16.8374 15.9207C16.8374 15.0485 16.1123 14.3414 15.2179 14.3414H6.3109Z" fill="black"/>
</mask>
<g mask="url(#mask0)">
<rect x="0.507812" width="20.5085" height="20" fill="#FBBF24"/>
</g>
</svg>
